P3
64 36
255
164 200 255
163 200 255
163 200 255
162 199 255
162 199 255
161 199 255
160 198 255
160 198 255
159 198 255
158 197 255
158 197 255
157 196 255
156 196 255
156 196 255
155 195 255
154 195 255
153 194 255
153 194 255
152 194 255
152 193 255
151 193 255
150 192 255
150 192 255
149 192 255
149 191 255
148 191 255
148 191 255
148 191 255
147 191 255
147 190 255
147 190 255
147 190 255
147 190 255
147 191 255
147 190 255
147 191 255
148 191 255
148 191 255
148 191 255
149 191 255
149 192 255
150 192 255
150 192 255
151 193 255
152 193 255
152 193 255
153 194 255
154 194 255
154 195 255
155 195 255
156 196 255
156 196 255
157 196 255
158 197 255
158 197 255
159 197 255
160 198 255
160 198 255
161 199 255
161 199 255
162 199 255
163 200 255
163 200 255
164 200 255
165 201 255
164 201 255
164 201 255
163 200 255
163 200 255
163 200 255
162 199 255
161 199 255
160 198 255
160 198 255
159 198 255
158 197 255
158 197 255
157 196 255
157 196 255
155 195 255
155 195 255
154 195 255
154 194 255
153 194 255
153 194 255
152 193 255
151 193 255
151 193 255
150 192 255
150 192 255
149 192 255
149 192 255
148 191 255
149 191 255
148 191 255
148 191 255
148 191 255
149 191 255
149 191 255
149 191 255
149 192 255
149 192 255
150 192 255
150 192 255
150 192 255
151 193 255
152 193 255
152 194 255
153 194 255
153 194 255
154 195 255
155 195 255
155 195 255
156 196 255
157 196 255
158 197 255
159 197 255
159 198 255
160 198 255
160 198 255
161 199 255
162 199 255
162 200 255
163 200 255
163 200 255
164 201 255
164 201 255
165 201 255
166 202 255
166 202 255
165 201 255
165 201 255
164 201 255
163 200 255
163 200 255
162 200 255
162 199 255
161 199 255
160 198 255
160 198 255
159 198 255
159 197 255
158 197 255
157 197 255
156 196 255
156 196 255
155 195 255
155 195 255
154 195 255
153 194 255
153 194 255
152 193 255
152 193 255
151 193 255
151 193 255
150 192 255
150 192 255
150 192 255
150 192 255
150 192 255
150 192 255
150 192 255
150 192 255
150 192 255
151 193 255
151 193 255
151 193 255
152 193 255
152 193 255
153 194 255
153 194 255
154 194 255
155 195 255
155 195 255
156 196 255
156 196 255
157 196 255
158 197 255
159 197 255
159 198 255
160 198 255
160 198 255
161 199 255
162 199 255
162 200 255
163 200 255
164 200 255
164 201 255
165 201 255
165 201 255
166 202 255
166 202 255
168 203 255
167 203 255
167 202 255
166 202 255
166 202 255
165 201 255
165 201 255
164 201 255
163 200 255
163 200 255
162 199 255
161 199 255
161 199 255
160 198 255
160 198 255
159 197 255
158 197 255
158 197 255
157 196 255
156 196 255
155 195 255
155 195 255
154 195 255
154 195 255
153 194 255
153 194 255
152 194 255
152 193 255
152 193 255
152 193 255
151 193 255
152 193 255
151 193 255
151 193 255
151 193 255
152 193 255
152 194 255
152 194 255
153 194 255
154 194 255
154 195 255
154 195 255
155 195 255
155 195 255
156 196 255
157 196 255
158 197 255
158 197 255
159 198 255
160 198 255
160 198 255
161 199 255
162 199 255
162 200 255
163 200 255
163 200 255
164 201 255
165 201 255
165 201 255
166 202 255
166 202 255
167 202 255
167 202 255
168 203 255
169 204 255
168 203 255
168 203 255
168 203 255
167 203 255
166 202 255
166 202 255
165 201 255
165 201 255
164 201 255
164 201 255
163 200 255
162 200 255
162 199 255
161 199 255
161 199 255
160 198 255
159 198 255
158 197 255
158 197 255
157 197 255
156 196 255
156 196 255
155 195 255
155 195 255
155 195 255
154 195 255
154 195 255
154 194 255
153 194 255
153 194 255
153 194 255
153 194 255
153 194 255
154 194 255
154 194 255
154 195 255
154 195 255
155 195 255
155 195 255
156 196 255
156 196 255
156 196 255
157 196 255
158 197 255
158 197 255
159 198 255
160 198 255
161 199 255
161 199 255
162 199 255
163 200 255
163 200 255
164 200 255
164 201 255
165 201 255
166 202 255
166 202 255
167 202 255
167 203 255
168 203 255
169 203 255
169 203 255
169 204 255
171 205 255
170 204 255
170 204 255
169 204 255
169 203 255
169 203 255
168 203 255
167 203 255
167 202 255
166 202 255
166 202 255
165 201 255
164 201 255
163 200 255
163 200 255
162 200 255
162 199 255
161 199 255
160 198 255
160 198 255
159 198 255
158 197 255
158 197 255
158 197 255
157 196 255
156 196 255
156 196 255
156 196 255
155 195 255
155 195 255
155 195 255
155 195 255
155 195 255
155 195 255
155 195 255
155 195 255
156 196 255
156 196 255
157 196 255
157 196 255
157 197 255
158 197 255
158 197 255
159 198 255
160 198 255
161 199 255
161 199 255
161 199 255
162 200 255
163 200 255
163 200 255
164 201 255
165 201 255
165 201 255
166 202 255
167 202 255
167 202 255
168 203 255
168 203 255
169 204 255
170 204 255
170 204 255
170 204 255
171 205 255
172 206 255
172 205 255
171 205 255
171 205 255
170 204 255
170 204 255
169 204 255
169 204 255
168 203 255
168 203 255
167 203 255
167 202 255
166 202 255
165 201 255
165 201 255
164 201 255
163 200 255
163 200 255
162 199 255
162 199 255
161 199 255
161 199 255
160 198 255
159 198 255
159 198 255
159 197 255
158 197 255
158 197 255
157 197 255
157 197 255
157 197 255
157 197 255
157 196 255
157 196 255
157 197 255
158 197 255
158 197 255
158 197 255
158 197 255
159 198 255
159 198 255
160 198 255
160 198 255
161 199 255
162 199 255
162 200 255
163 200 255
164 201 255
164 201 255
165 201 255
165 201 255
166 202 255
166 202 255
167 203 255
168 203 255
168 203 255
169 204 255
169 204 255
170 204 255
170 204 255
171 205 255
171 205 255
172 205 255
172 206 255
174 206 255
173 206 255
173 206 255
173 206 255
172 205 255
172 205 255
171 205 255
171 205 255
170 204 255
170 204 255
169 204 255
168 203 255
168 203 255
168 203 255
167 202 255
166 202 255
166 202 255
165 201 255
164 201 255
164 200 255
163 200 255
163 200 255
162 199 255
162 199 255
161 199 255
161 199 255
161 199 255
160 198 255
160 198 255
159 198 255
155 201 251
152 204 245
151 207 241
157 201 250
158 201 250
160 198 255
160 198 255
160 198 255
161 199 255
161 199 255
162 199 255
162 200 255
163 200 255
164 200 255
164 200 255
165 201 255
165 201 255
166 202 255
166 202 255
167 202 255
168 203 255
168 203 255
168 203 255
169 203 255
169 204 255
170 204 255
171 205 255
171 205 255
171 205 255
172 205 255
173 206 255
173 206 255
173 206 255
174 206 255
175 207 255
175 207 255
174 207 255
174 207 255
174 206 255
173 206 255
173 206 255
172 206 255
172 205 255
172 205 255
171 205 255
171 205 255
170 204 255
169 204 255
169 204 255
168 203 255
168 203 255
167 203 255
167 202 255
166 202 255
165 201 255
165 201 255
164 201 255
164 201 255
164 200 255
163 200 255
163 200 255
146 203 246
101 216 216
105 212 221
115 211 223
123 210 225
133 211 224
140 213 222
152 215 217
162 214 219
164 205 241
162 200 255
163 200 255
164 200 255
164 201 255
165 201 255
165 201 255
166 202 255
166 202 255
166 202 255
167 203 255
167 203 255
168 203 255
169 204 255
170 204 255
170 204 255
170 204 255
171 205 255
171 205 255
172 205 255
172 206 255
173 206 255
173 206 255
174 206 255
174 206 255
174 207 255
175 207 255
176 208 255
177 209 255
176 208 255
176 208 255
176 208 255
176 207 255
176 208 255
174 207 255
174 207 255
174 207 255
173 206 255
173 206 255
173 206 255
172 205 255
172 205 255
171 205 255
171 205 255
170 204 255
169 204 255
169 204 255
168 203 255
168 203 255
167 203 255
167 202 255
166 202 255
166 202 255
165 201 255
84 208 215
88 203 223
96 204 225
106 199 232
116 199 233
123 199 233
130 198 234
141 197 234
148 198 232
157 203 227
168 206 220
176 206 224
170 202 246
166 202 255
166 202 255
167 202 255
167 203 255
168 203 255
168 203 255
169 204 255
170 204 255
170 204 255
171 205 255
171 205 255
172 205 255
172 206 255
173 206 255
173 206 255
173 206 255
174 206 255
174 207 255
174 207 255
175 207 255
175 207 255
176 208 255
176 208 255
177 208 255
177 208 255
179 209 255
178 209 255
178 209 255
178 209 255
177 209 255
177 208 255
176 208 255
176 208 255
176 208 255
176 208 255
175 207 255
174 207 255
174 206 255
173 206 255
173 206 255
173 206 255
172 205 255
171 205 255
171 205 255
171 205 255
170 204 255
170 204 255
169 204 255
169 203 255
134 202 240
69 195 219
79 192 227
91 191 232
98 189 236
108 189 238
115 188 239
123 187 241
130 187 241
139 187 240
147 188 239
156 188 236
165 190 233
177 192 226
185 201 221
178 202 240
169 204 255
169 204 255
170 204 255
170 204 255
171 205 255
171 205 255
172 205 255
172 205 255
173 206 255
173 206 255
174 206 255
174 207 255
175 207 255
175 207 255
175 207 255
176 208 255
176 208 255
176 208 255
177 208 255
177 208 255
178 209 255
178 209 255
178 209 255
178 209 255
181 211 255
180 210 255
179 210 255
179 210 255
179 210 255
179 210 255
179 209 255
178 209 255
178 209 255
177 209 255
177 208 255
177 208 255
176 208 255
176 208 255
176 208 255
175 207 255
175 207 255
174 207 255
174 206 255
173 206 255
173 206 255
172 206 255
172 205 255
122 198 236
69 189 220
72 182 229
81 181 234
92 179 239
100 178 242
109 177 244
115 177 245
124 178 245
131 178 245
140 178 245
147 179 243
155 181 241
164 179 239
173 181 234
186 184 226
196 189 219
172 205 255
172 205 255
172 206 255
173 206 255
173 206 255
174 206 255
174 207 255
175 207 255
175 207 255
175 207 255
176 208 255
177 208 255
177 208 255
177 208 255
177 208 255
178 209 255
178 209 255
178 209 255
179 210 255
179 209 255
179 210 255
180 210 255
180 210 255
180 210 255
182 211 255
182 211 255
181 211 255
181 211 255
181 211 255
181 211 255
180 210 255
180 210 255
180 210 255
180 210 255
179 210 255
179 210 255
179 210 255
178 209 255
178 209 255
178 209 255
177 208 255
177 208 255
176 208 255
176 208 255
176 208 255
175 207 255
160 204 249
72 186 220
64 175 228
73 173 234
84 170 240
92 170 243
102 170 246
109 169 247
117 168 248
125 168 249
132 168 249
140 170 248
146 168 247
155 169 245
162 171 243
172 170 240
181 173 234
192 173 228
203 182 218
175 207 255
175 207 255
175 207 255
176 208 255
176 208 255
176 208 255
177 208 255
177 209 255
178 209 255
178 209 255
179 209 255
179 210 255
179 209 255
180 210 255
180 210 255
180 210 255
180 210 255
181 211 255
181 211 255
181 211 255
181 211 255
182 211 255
182 211 255
184 212 255
184 212 255
183 212 255
183 212 255
183 212 255
182 212 255
183 212 255
182 212 255
182 211 255
182 211 255
181 211 255
181 211 255
181 211 255
180 210 255
180 210 255
180 210 255
179 210 255
179 210 255
179 209 255
179 210 255
179 209 255
178 209 255
123 192 238
53 168 223
63 167 231
76 164 239
86 162 244
93 161 246
101 160 248
108 161 250
117 161 251
124 162 251
132 161 251
140 161 250
145 160 250
155 160 248
161 163 246
171 162 243
181 165 237
190 166 232
203 168 222
185 202 246
178 209 255
178 209 255
179 209 255
179 209 255
179 210 255
179 210 255
180 210 255
180 210 255
180 210 255
181 211 255
181 211 255
181 211 255
181 211 255
182 211 255
182 212 255
182 212 255
183 212 255
183 212 255
183 212 255
183 212 255
184 213 255
184 213 255
185 213 255
185 213 255
185 213 255
185 213 255
185 213 255
185 213 255
184 213 255
185 213 255
184 213 255
184 213 255
184 212 255
183 212 255
183 212 255
183 212 255
183 212 255
183 212 255
182 211 255
182 211 255
182 211 255
181 211 255
181 211 255
181 211 255
96 179 232
54 159 227
66 156 236
77 155 242
85 155 245
95 152 249
101 155 250
109 154 251
117 153 252
123 153 253
131 152 253
138 153 253
145 152 252
154 155 250
161 153 248
169 154 245
179 155 242
187 156 237
203 159 226
209 169 222
181 211 255
181 211 255
181 211 255
182 211 255
182 211 255
182 212 255
182 212 255
183 212 255
183 212 255
183 212 255
183 212 255
184 213 255
184 213 255
184 212 255
184 213 255
184 213 255
185 213 255
185 213 255
185 213 255
185 213 255
185 213 255
185 213 255
187 214 255
187 214 255
187 215 255
187 214 255
187 214 255
186 214 255
187 214 255
186 214 255
186 214 255
186 214 255
186 214 255
186 214 255
185 213 255
185 213 255
185 213 255
185 213 255
185 213 255
184 213 255
184 213 255
184 213 255
184 212 255
184 212 255
53 158 220
55 148 231
69 147 239
77 147 243
86 147 247
95 146 250
103 146 252
110 144 253
117 146 254
123 146 254
130 145 254
138 146 254
146 146 253
153 145 252
161 146 250
168 146 247
178 147 243
189 146 238
198 150 232
220 152 213
193 200 244
184 212 255
185 213 255
184 213 255
185 213 255
185 213 255
185 213 255
185 213 255
185 213 255
186 214 255
186 214 255
186 214 255
186 214 255
186 214 255
186 214 255
187 214 255
187 214 255
187 214 255
186 214 255
187 214 255
187 214 255
187 214 255
188 215 255
189 216 255
189 215 255
189 216 255
188 215 255
189 215 255
189 215 255
188 215 255
188 215 255
188 215 255
188 215 255
188 215 255
188 215 255
188 215 255
187 215 255
187 214 255
188 215 255
187 215 255
187 214 255
187 215 255
187 215 255
171 207 251
41 141 221
57 140 233
69 141 240
77 139 244
86 139 248
95 139 251
101 138 252
110 139 254
116 138 255
123 139 255
131 138 255
139 138 254
146 137 254
153 138 252
160 138 251
169 140 248
178 139 245
187 139 240
198 141 233
211 140 223
203 185 236
187 215 255
186 214 255
187 214 255
187 214 255
188 215 255
187 215 255
188 215 255
188 215 255
188 215 255
188 215 255
188 215 255
188 215 255
188 215 255
189 215 255
188 215 255
189 215 255
189 215 255
189 216 255
189 215 255
189 216 255
189 216 255
191 217 255
190 216 255
191 217 255
191 217 255
190 216 255
191 217 255
191 217 255
191 217 255
190 216 255
190 216 255
190 216 255
191 217 255
190 216 255
191 217 255
190 216 255
190 216 255
190 216 255
190 216 255
190 216 255
190 216 255
190 216 255
109 173 232
46 131 226
56 130 234
67 132 240
78 131 245
85 130 248
95 132 251
103 132 253
108 131 254
117 131 255
123 132 255
130 130 255
139 131 255
144 132 254
152 131 253
160 131 251
168 131 249
179 132 245
186 131 241
197 131 235
210 131 225
201 191 242
190 216 255
190 216 255
190 216 255
190 216 255
190 216 255
190 216 255
190 216 255
190 216 255
190 216 255
191 217 255
190 216 255
190 216 255
190 216 255
190 216 255
191 217 255
190 216 255
190 216 255
190 216 255
191 217 255
191 217 255
191 217 255
192 217 255
192 218 255
192 217 255
192 218 255
193 218 255
193 218 255
192 218 255
193 218 255
193 218 255
193 218 255
193 218 255
193 218 255
193 218 255
193 218 255
193 218 255
193 218 255
193 218 255
193 218 255
193 218 255
193 218 255
193 218 255
142 190 238
43 123 224
56 122 234
68 124 241
76 123 245
86 125 248
94 124 251
101 124 253
109 124 254
118 124 255
125 124 255
131 124 255
139 123 255
146 123 254
153 125 253
162 124 251
169 124 249
177 123 246
189 124 240
199 125 234
211 121 224
203 190 241
193 218 255
193 218 255
193 218 255
193 218 255
192 218 255
193 218 255
192 218 255
193 218 255
193 218 255
193 218 255
193 218 255
192 218 255
193 218 255
193 218 255
193 218 255
192 218 255
192 218 255
192 218 255
193 218 255
192 218 255
192 218 255
194 219 255
194 219 255
194 219 255
195 219 255
194 219 255
194 219 255
194 219 255
195 219 255
195 219 255
194 219 255
195 219 255
195 219 255
196 220 255
195 219 255
195 219 255
195 219 255
195 219 255
196 220 255
196 220 255
196 220 255
196 220 255
161 198 244
42 114 222
55 113 232
67 115 240
77 117 245
86 116 248
94 117 251
102 116 252
110 116 254
116 117 254
124 117 255
132 117 255
137 117 255
145 117 254
152 116 252
160 117 251
170 117 248
178 116 244
187 115 240
199 115 233
212 113 222
210 159 210
190 223 242
196 220 255
196 220 255
196 220 255
195 219 255
195 219 255
195 219 255
195 219 255
195 219 255
195 219 255
195 219 255
195 219 255
195 219 255
195 219 255
194 219 255
195 219 255
194 219 255
194 219 255
194 219 255
194 219 255
194 219 255
196 220 255
196 220 255
196 220 255
196 220 255
196 220 255
196 220 255
197 220 255
181 227 229
181 227 229
181 227 229
143 245 163
174 231 216
174 231 216
144 245 163
137 248 150
145 245 163
145 245 162
123 255 123
123 255 123
123 255 123
124 255 123
114 240 131
40 104 217
56 107 231
67 107 238
77 107 243
87 110 247
94 108 249
103 110 252
108 109 253
118 110 254
124 110 254
133 109 254
138 110 254
145 110 253
152 109 252
162 108 249
170 110 247
177 109 244
188 107 238
200 105 230
218 104 214
131 255 124
131 255 124
139 252 135
131 255 123
152 245 163
145 248 150
152 245 163
165 238 189
184 227 229
166 238 189
172 234 202
178 231 216
190 224 242
178 231 216
197 220 255
197 220 255
197 220 255
196 220 255
196 220 255
196 220 255
196 220 255
196 220 255
158 238 190
136 248 151
128 252 137
158 238 190
136 248 151
121 255 124
122 255 125
122 255 124
122 255 125
122 255 124
123 255 125
123 255 125
124 255 125
124 255 125
124 255 125
124 255 125
124 255 125
125 255 125
125 255 125
125 255 125
125 255 125
125 255 125
65 142 186
54 96 227
67 99 237
75 100 241
84 100 245
94 101 248
102 100 250
110 102 252
117 103 253
124 103 253
132 101 253
138 102 253
146 103 252
153 102 250
163 99 247
168 101 246
180 99 241
187 100 237
202 96 227
194 142 182
130 255 125
130 255 125
130 255 125
130 255 125
130 255 125
131 255 125
131 255 125
131 255 125
131 255 125
132 255 125
132 255 125
132 255 125
133 255 125
133 255 125
133 255 125
133 255 125
134 255 124
141 252 137
135 255 124
160 241 177
178 231 216
166 238 190
122 255 126
123 255 126
123 255 126
123 255 126
123 255 126
123 255 126
123 255 126
124 255 126
124 255 126
124 255 126
124 255 126
124 255 126
124 255 126
125 255 126
125 255 126
125 255 126
125 255 126
125 255 126
126 255 126
126 255 126
126 255 126
126 255 126
65 138 186
52 88 223
64 91 232
75 91 238
84 92 242
95 93 246
100 94 248
109 94 250
117 95 251
123 95 251
132 94 251
139 94 250
147 94 249
153 93 248
162 92 246
171 93 243
180 92 239
191 88 231
203 89 224
164 186 158
129 255 126
129 255 126
129 255 126
129 255 126
130 255 126
130 255 126
130 255 126
130 255 126
130 255 126
130 255 126
131 255 126
131 255 126
131 255 126
131 255 126
131 255 126
132 255 126
132 255 126
132 255 126
132 255 126
132 255 126
133 255 126
133 255 126
123 255 126
124 255 127
124 255 126
124 255 126
124 255 127
124 255 126
124 255 127
124 255 127
125 255 126
125 255 127
125 255 127
125 255 127
125 255 127
125 255 127
125 255 127
126 255 127
126 255 127
126 255 127
126 255 127
126 255 127
126 255 127
126 255 127
117 237 134
55 95 204
63 78 227
73 83 234
84 83 239
92 86 243
101 85 245
110 87 248
116 87 248
125 86 249
131 87 249
140 87 248
147 85 247
154 85 245
163 85 243
172 83 239
181 83 235
195 78 224
208 76 212
129 255 127
129 255 127
129 255 127
129 255 127
129 255 127
129 255 127
129 255 127
129 255 127
130 255 127
130 255 127
130 255 127
130 255 127
130 255 127
130 255 127
130 255 127
131 255 126
131 255 127
131 255 127
131 255 127
131 255 127
131 255 127
132 255 126
131 255 126
124 255 127
124 255 127
124 255 127
125 255 127
125 255 127
125 255 127
125 255 127
125 255 127
125 255 127
125 255 127
125 255 127
125 255 127
126 255 127
126 255 127
126 255 127
126 255 127
126 255 127
126 255 127
126 255 127
126 255 127
126 255 127
126 255 127
127 255 127
119 237 135
70 102 194
70 70 226
81 72 233
91 75 238
100 76 241
108 76 243
115 77 244
122 77 245
132 78 245
138 77 245
147 76 243
154 77 242
163 75 239
173 74 235
185 71 227
189 86 208
145 218 142
128 255 127
129 255 127
129 255 127
129 255 127
129 255 127
129 255 127
129 255 127
129 255 127
129 255 127
129 255 127
129 255 127
130 255 127
130 255 127
130 255 127
130 255 127
130 255 127
130 255 127
130 255 127
130 255 127
130 255 127
131 255 127
131 255 127
131 255 127
125 255 127
125 255 127
125 255 127
125 255 127
125 255 127
125 255 127
125 255 127
125 255 127
125 255 127
126 255 127
126 255 127
126 255 127
126 255 127
126 255 127
126 255 127
126 255 127
126 255 127
126 255 127
126 255 127
126 255 127
126 255 127
127 255 127
127 255 127
127 255 127
99 175 158
74 78 208
80 62 226
91 64 233
99 66 236
107 67 238
115 66 239
124 68 241
131 68 241
139 68 240
148 68 239
158 67 236
165 66 233
175 63 228
190 57 214
143 214 142
128 255 127
128 255 127
128 255 127
129 255 127
129 255 127
129 255 127
129 255 127
129 255 127
129 255 127
129 255 127
129 255 127
129 255 127
129 255 127
129 255 127
129 255 127
130 255 127
130 255 127
130 255 127
130 255 127
130 255 127
130 255 127
130 255 127
130 255 127
130 255 127
125 255 127
125 255 127
125 255 127
125 255 127
125 255 127
125 255 127
126 255 127
126 255 127
126 255 127
126 255 127
126 255 127
126 255 127
126 255 127
126 255 127
126 255 127
126 255 127
126 255 127
126 255 127
126 255 127
127 255 127
127 255 127
127 255 127
127 255 127
127 255 127
127 255 127
109 192 150
82 69 205
88 51 222
96 53 227
106 54 230
116 57 234
123 56 233
131 57 234
139 56 233
148 56 231
158 54 227
168 50 221
174 70 206
134 234 135
128 255 127
128 255 127
128 255 127
128 255 127
128 255 127
128 255 127
129 255 127
129 255 127
129 255 127
129 255 127
129 255 127
129 255 127
129 255 127
129 255 127
129 255 127
129 255 127
129 255 127
129 255 127
129 255 127
130 255 127
130 255 127
130 255 127
130 255 127
130 255 127
130 255 127
125 255 128
125 255 128
125 255 128
126 255 128
126 255 128
126 255 128
126 255 128
126 255 128
126 255 128
126 255 128
126 255 128
126 255 128
126 255 128
126 255 128
126 255 128
126 255 128
126 255 128
127 255 128
127 255 128
127 255 128
127 255 128
127 255 128
127 255 128
127 255 128
127 255 128
127 255 128
127 255 128
109 168 159
103 104 187
105 41 219
114 40 219
122 46 226
132 44 224
142 43 222
150 39 217
157 77 189
145 168 159
128 255 128
128 255 128
128 255 128
128 255 128
128 255 128
128 255 128
128 255 128
128 255 128
128 255 128
128 255 128
129 255 128
129 255 128
129 255 128
129 255 128
129 255 128
129 255 128
129 255 128
129 255 128
129 255 128
129 255 128
129 255 128
129 255 128
129 255 128
129 255 128
130 255 128
130 255 128
130 255 128
126 255 128
126 255 128
126 255 128
126 255 128
126 255 128
126 255 128
126 255 128
126 255 128
126 255 128
126 255 128
126 255 128
126 255 128
126 255 128
126 255 128
126 255 128
126 255 128
127 255 128
127 255 128
127 255 128
127 255 128
127 255 128
127 255 128
127 255 128
127 255 128
127 255 128
127 255 128
127 255 128
127 255 128
127 255 128
123 209 142
118 117 172
125 186 150
129 141 166
134 142 167
130 232 135
128 255 128
128 255 128
128 255 128
128 255 128
128 255 128
128 255 128
128 255 128
128 255 128
128 255 128
128 255 128
128 255 128
128 255 128
128 255 128
129 255 128
129 255 128
129 255 128
129 255 128
129 255 128
129 255 128
129 255 128
129 255 128
129 255 128
129 255 128
129 255 128
129 255 128
129 255 128
129 255 128
129 255 128
129 255 128
126 255 128
126 255 128
126 255 128
126 255 128
126 255 128
126 255 128
126 255 128
126 255 128
126 255 128
126 255 128
126 255 128
126 255 128
126 255 128
126 255 128
127 255 128
127 255 128
127 255 128
127 255 128
127 255 128
127 255 128
127 255 128
127 255 128
127 255 128
127 255 128
127 255 128
127 255 128
127 255 128
127 255 128
127 255 128
127 255 128
127 255 128
127 255 128
128 255 128
128 255 128
128 255 128
128 255 128
128 255 128
128 255 128
128 255 128
128 255 128
128 255 128
128 255 128
128 255 128
128 255 128
128 255 128
128 255 128
128 255 128
128 255 128
128 255 128
128 255 128
129 255 128
129 255 128
129 255 128
129 255 128
129 255 128
129 255 128
129 255 128
129 255 128
129 255 128
129 255 128
129 255 128
129 255 128
129 255 128
129 255 128
126 255 128
126 255 128
126 255 128
126 255 128
126 255 128
126 255 128
126 255 128
126 255 128
126 255 128
126 255 128
126 255 128
126 255 128
127 255 128
127 255 128
127 255 128
127 255 128
127 255 128
127 255 128
127 255 128
127 255 128
127 255 128
127 255 128
127 255 128
127 255 128
127 255 128
127 255 128
127 255 128
127 255 128
127 255 128
127 255 128
127 255 128
127 255 128
128 255 128
128 255 128
128 255 128
128 255 128
128 255 128
128 255 128
128 255 128
128 255 128
128 255 128
128 255 128
128 255 128
128 255 128
128 255 128
128 255 128
128 255 128
128 255 128
128 255 128
128 255 128
128 255 128
129 255 128
129 255 128
129 255 128
129 255 128
129 255 128
129 255 128
129 255 128
129 255 128
129 255 128
129 255 128
129 255 128
129 255 128
129 255 128
126 255 128
126 255 128
126 255 128
126 255 128
126 255 128
126 255 128
126 255 128
126 255 128
126 255 128
126 255 128
126 255 128
127 255 128
127 255 128
127 255 128
127 255 128
127 255 128
127 255 128
127 255 128
127 255 128
127 255 128
127 255 128
127 255 128
127 255 128
127 255 128
127 255 128
127 255 128
127 255 128
127 255 128
127 255 128
127 255 128
127 255 128
127 255 128
128 255 128
128 255 128
128 255 128
128 255 128
128 255 128
128 255 128
128 255 128
128 255 128
128 255 128
128 255 128
128 255 128
128 255 128
128 255 128
128 255 128
128 255 128
128 255 128
128 255 128
128 255 128
128 255 128
128 255 128
128 255 128
129 255 128
129 255 128
129 255 128
129 255 128
129 255 128
129 255 128
129 255 128
129 255 128
129 255 128
129 255 128
129 255 128
126 255 128
126 255 128
126 255 128
126 255 128
126 255 128
126 255 128
126 255 128
126 255 128
126 255 128
127 255 128
127 255 128
127 255 128
127 255 128
127 255 128
127 255 128
127 255 128
127 255 128
127 255 128
127 255 128
127 255 128
127 255 128
127 255 128
127 255 128
127 255 128
127 255 128
127 255 128
127 255 128
127 255 128
127 255 128
127 255 128
127 255 128
127 255 128
128 255 128
128 255 128
128 255 128
128 255 128
128 255 128
128 255 128
128 255 128
128 255 128
128 255 128
128 255 128
128 255 128
128 255 128
128 255 128
128 255 128
128 255 128
128 255 128
128 255 128
128 255 128
128 255 128
128 255 128
128 255 128
128 255 128
128 255 128
129 255 128
129 255 128
129 255 128
129 255 128
129 255 128
129 255 128
129 255 128
129 255 128
129 255 128
126 255 128
126 255 128
126 255 128
126 255 128
126 255 128
126 255 128
126 255 128
126 255 128
127 255 128
127 255 128
127 255 128
127 255 128
127 255 128
127 255 128
127 255 128
127 255 128
127 255 128
127 255 128
127 255 128
127 255 128
127 255 128
127 255 128
127 255 128
127 255 128
127 255 128
127 255 128
127 255 128
127 255 128
127 255 128
127 255 128
127 255 128
127 255 128
128 255 128
128 255 128
128 255 128
128 255 128
128 255 128
128 255 128
128 255 128
128 255 128
128 255 128
128 255 128
128 255 128
128 255 128
128 255 128
128 255 128
128 255 128
128 255 128
128 255 128
128 255 128
128 255 128
128 255 128
128 255 128
128 255 128
128 255 128
128 255 128
129 255 128
129 255 128
129 255 128
129 255 128
129 255 128
129 255 128
129 255 128
129 255 128
126 255 128
126 255 128
126 255 128
126 255 128
126 255 128
126 255 128
127 255 128
127 255 128
127 255 128
127 255 128
127 255 128
127 255 128
127 255 128
127 255 128
127 255 128
127 255 128
127 255 128
127 255 128
127 255 128
127 255 128
127 255 128
127 255 128
127 255 128
127 255 128
127 255 128
127 255 128
127 255 128
127 255 128
127 255 128
127 255 128
127 255 128
127 255 128
128 255 128
128 255 128
128 255 128
128 255 128
128 255 128
128 255 128
128 255 128
128 255 128
128 255 128
128 255 128
128 255 128
128 255 128
128 255 128
128 255 128
128 255 128
128 255 128
128 255 128
128 255 128
128 255 128
128 255 128
128 255 128
128 255 128
128 255 128
128 255 128
128 255 128
128 255 128
129 255 128
129 255 128
129 255 128
129 255 128
129 255 128
129 255 128
126 255 128
126 255 128
126 255 128
126 255 128
126 255 128
127 255 128
127 255 128
127 255 128
127 255 128
127 255 128
127 255 128
127 255 128
127 255 128
127 255 128
127 255 128
127 255 128
127 255 128
127 255 128
127 255 128
127 255 128
127 255 128
127 255 128
127 255 128
127 255 128
127 255 128
127 255 128
127 255 128
127 255 128
127 255 128
127 255 128
127 255 128
127 255 128
128 255 128
128 255 128
128 255 128
128 255 128
128 255 128
128 255 128
128 255 128
128 255 128
128 255 128
128 255 128
128 255 128
128 255 128
128 255 128
128 255 128
128 255 128
128 255 128
128 255 128
128 255 128
128 255 128
128 255 128
128 255 128
128 255 128
128 255 128
128 255 128
128 255 128
128 255 128
128 255 128
129 255 128
129 255 128
129 255 128
129 255 128
129 255 128
