P3
64 36
255
164 200 255
163 200 255
163 200 255
162 199 255
161 199 255
161 199 255
160 198 255
160 198 255
159 198 255
158 197 255
158 197 255
157 196 255
156 196 255
156 196 255
155 195 255
154 195 255
154 194 255
153 194 255
152 194 255
152 193 255
151 193 255
150 192 255
150 192 255
149 192 255
149 191 255
148 191 255
148 191 255
148 191 255
147 191 255
147 190 255
147 190 255
147 190 255
147 190 255
147 190 255
147 190 255
147 191 255
148 191 255
148 191 255
148 191 255
149 191 255
149 192 255
150 192 255
150 192 255
151 193 255
152 193 255
152 194 255
153 194 255
154 194 255
154 195 255
155 195 255
156 196 255
156 196 255
157 196 255
158 197 255
158 197 255
159 198 255
160 198 255
160 198 255
161 199 255
161 199 255
162 199 255
163 200 255
163 200 255
164 200 255
165 201 255
164 201 255
164 201 255
163 200 255
163 200 255
162 200 255
162 199 255
161 199 255
160 198 255
160 198 255
159 198 255
158 197 255
158 197 255
157 196 255
156 196 255
156 196 255
155 195 255
154 195 255
154 194 255
153 194 255
152 194 255
152 193 255
151 193 255
151 193 255
150 192 255
150 192 255
149 192 255
149 192 255
149 191 255
148 191 255
148 191 255
148 191 255
148 191 255
148 191 255
148 191 255
149 191 255
149 192 255
149 192 255
150 192 255
150 192 255
151 193 255
151 193 255
152 193 255
152 194 255
153 194 255
154 194 255
154 195 255
155 195 255
156 196 255
156 196 255
157 196 255
158 197 255
158 197 255
159 198 255
160 198 255
160 198 255
161 199 255
162 199 255
162 200 255
163 200 255
163 200 255
164 201 255
164 201 255
165 201 255
166 202 255
166 202 255
165 201 255
165 201 255
164 201 255
164 200 255
163 200 255
162 200 255
162 199 255
161 199 255
161 199 255
160 198 255
159 198 255
159 197 255
158 197 255
157 197 255
157 196 255
156 196 255
155 195 255
155 195 255
154 195 255
153 194 255
153 194 255
152 194 255
152 193 255
151 193 255
151 193 255
150 192 255
150 192 255
150 192 255
150 192 255
150 192 255
150 192 255
150 192 255
150 192 255
150 192 255
150 192 255
151 193 255
151 193 255
152 193 255
152 194 255
153 194 255
153 194 255
154 195 255
155 195 255
155 195 255
156 196 255
157 196 255
157 197 255
158 197 255
159 197 255
159 198 255
160 198 255
161 199 255
161 199 255
162 199 255
162 200 255
163 200 255
164 200 255
164 201 255
165 201 255
165 201 255
166 202 255
166 202 255
168 203 255
167 203 255
167 202 255
166 202 255
166 202 255
165 201 255
165 201 255
164 201 255
163 200 255
163 200 255
162 199 255
161 199 255
161 199 255
160 198 255
159 198 255
159 197 255
158 197 255
157 197 255
157 196 255
156 196 255
156 196 255
155 195 255
154 195 255
154 194 255
153 194 255
153 194 255
152 194 255
152 193 255
152 193 255
152 193 255
151 193 255
151 193 255
151 193 255
151 193 255
152 193 255
152 193 255
152 193 255
152 194 255
153 194 255
153 194 255
154 194 255
154 195 255
155 195 255
156 196 255
156 196 255
157 196 255
157 197 255
158 197 255
159 197 255
159 198 255
160 198 255
161 199 255
161 199 255
162 199 255
163 200 255
163 200 255
164 201 255
165 201 255
165 201 255
166 202 255
166 202 255
167 202 255
167 203 255
168 203 255
169 204 255
169 203 255
168 203 255
168 203 255
167 203 255
167 202 255
166 202 255
166 202 255
165 201 255
164 201 255
164 200 255
163 200 255
162 200 255
162 199 255
161 199 255
161 199 255
160 198 255
159 198 255
159 197 255
158 197 255
157 197 255
157 196 255
156 196 255
156 196 255
155 195 255
155 195 255
154 195 255
154 195 255
154 194 255
153 194 255
153 194 255
153 194 255
153 194 255
153 194 255
153 194 255
154 194 255
154 195 255
154 195 255
155 195 255
155 195 255
156 196 255
156 196 255
157 196 255
157 197 255
158 197 255
159 197 255
159 198 255
160 198 255
161 199 255
161 199 255
162 199 255
162 200 255
163 200 255
164 200 255
164 201 255
165 201 255
166 202 255
166 202 255
167 202 255
167 203 255
168 203 255
168 203 255
169 203 255
169 204 255
171 205 255
170 204 255
170 204 255
169 204 255
169 203 255
168 203 255
168 203 255
167 202 255
167 202 255
166 202 255
165 201 255
165 201 255
164 201 255
164 200 255
163 200 255
162 200 255
162 199 255
161 199 255
160 198 255
160 198 255
159 198 255
159 197 255
158 197 255
157 197 255
157 196 255
157 196 255
156 196 255
156 196 255
155 195 255
155 195 255
155 195 255
155 195 255
155 195 255
155 195 255
155 195 255
155 195 255
156 196 255
156 196 255
157 196 255
157 196 255
157 197 255
158 197 255
159 197 255
159 198 255
160 198 255
160 198 255
161 199 255
162 199 255
162 200 255
163 200 255
164 200 255
164 201 255
165 201 255
165 201 255
166 202 255
167 202 255
167 202 255
168 203 255
168 203 255
169 203 255
169 204 255
170 204 255
170 204 255
171 205 255
172 205 255
172 205 255
171 205 255
171 205 255
170 204 255
170 204 255
169 204 255
169 204 255
168 203 255
168 203 255
167 203 255
167 202 255
166 202 255
165 201 255
165 201 255
164 201 255
164 200 255
163 200 255
162 200 255
162 199 255
161 199 255
161 199 255
160 198 255
159 198 255
159 198 255
159 197 255
158 197 255
158 197 255
157 197 255
157 197 255
157 196 255
157 196 255
157 196 255
157 196 255
157 197 255
157 197 255
158 197 255
158 197 255
159 197 255
159 198 255
159 198 255
160 198 255
161 199 255
161 199 255
162 199 255
162 200 255
163 200 255
164 200 255
164 201 255
165 201 255
165 201 255
166 202 255
167 202 255
167 203 255
168 203 255
168 203 255
169 204 255
169 204 255
170 204 255
170 204 255
171 205 255
171 205 255
172 205 255
172 205 255
174 206 255
173 206 255
173 206 255
172 206 255
172 205 255
172 205 255
171 205 255
171 205 255
170 204 255
170 204 255
169 204 255
169 203 255
168 203 255
167 203 255
167 202 255
166 202 255
166 202 255
165 201 255
164 201 255
164 201 255
163 200 255
163 200 255
162 199 255
162 199 255
161 199 255
161 199 255
160 198 255
160 198 255
160 198 255
159 198 255
159 198 255
159 198 255
159 198 255
159 198 255
159 198 255
160 198 255
160 198 255
160 198 255
161 199 255
161 199 255
162 199 255
162 199 255
163 200 255
163 200 255
164 201 255
164 201 255
165 201 255
166 202 255
166 202 255
167 202 255
167 203 255
168 203 255
169 203 255
169 204 255
170 204 255
170 204 255
171 205 255
171 205 255
172 205 255
172 205 255
172 206 255
173 206 255
173 206 255
174 206 255
175 207 255
175 207 255
175 207 255
174 207 255
174 206 255
173 206 255
173 206 255
172 206 255
172 205 255
171 205 255
171 205 255
170 204 255
170 204 255
169 204 255
169 204 255
168 203 255
168 203 255
167 203 255
167 202 255
166 202 255
165 201 255
165 201 255
164 201 255
164 201 255
163 200 255
163 200 255
163 200 255
162 200 255
94 219 211
105 215 218
114 213 222
123 212 224
132 212 224
141 213 222
150 215 218
161 219 211
162 200 255
163 200 255
163 200 255
163 200 255
164 201 255
164 201 255
165 201 255
165 201 255
166 202 255
167 202 255
167 203 255
168 203 255
168 203 255
169 204 255
169 204 255
170 204 255
170 204 255
171 205 255
171 205 255
172 205 255
172 206 255
173 206 255
173 206 255
174 206 255
174 207 255
175 207 255
175 207 255
175 207 255
177 208 255
177 208 255
176 208 255
176 208 255
175 207 255
175 207 255
175 207 255
174 207 255
174 207 255
173 206 255
173 206 255
172 206 255
172 205 255
171 205 255
171 205 255
170 204 255
170 204 255
169 204 255
169 204 255
168 203 255
168 203 255
167 203 255
167 202 255
166 202 255
166 202 255
166 202 255
75 209 211
87 204 222
97 201 228
106 199 231
115 198 233
123 198 234
132 198 234
140 198 233
149 199 231
158 201 228
168 204 222
180 209 211
166 202 255
166 202 255
166 202 255
167 202 255
167 203 255
168 203 255
168 203 255
169 204 255
169 204 255
170 204 255
170 204 255
171 205 255
171 205 255
172 205 255
172 206 255
173 206 255
173 206 255
174 207 255
174 207 255
175 207 255
175 207 255
175 207 255
176 208 255
176 208 255
177 208 255
177 208 255
179 209 255
178 209 255
178 209 255
178 209 255
177 209 255
177 208 255
177 208 255
176 208 255
176 208 255
175 207 255
175 207 255
175 207 255
174 207 255
174 206 255
173 206 255
173 206 255
172 206 255
172 205 255
171 205 255
171 205 255
170 204 255
170 204 255
169 204 255
169 204 255
169 203 255
67 197 216
80 193 227
90 190 232
99 189 236
107 188 239
116 187 240
124 187 241
131 187 241
139 187 240
148 188 239
156 189 236
165 190 232
175 193 227
188 197 216
169 203 255
169 204 255
169 204 255
170 204 255
170 204 255
171 205 255
171 205 255
172 205 255
172 206 255
173 206 255
173 206 255
174 206 255
174 207 255
175 207 255
175 207 255
175 207 255
176 208 255
176 208 255
177 208 255
177 208 255
177 209 255
178 209 255
178 209 255
178 209 255
179 209 255
180 210 255
180 210 255
180 210 255
179 210 255
179 210 255
179 209 255
178 209 255
178 209 255
178 209 255
177 209 255
177 208 255
177 208 255
176 208 255
176 208 255
175 207 255
175 207 255
175 207 255
174 207 255
174 206 255
173 206 255
173 206 255
172 206 255
172 205 255
172 205 255
58 188 216
71 184 228
82 181 234
91 180 239
100 179 241
108 178 243
116 178 245
124 177 245
131 177 245
139 178 245
147 178 243
155 179 241
164 180 239
173 181 234
184 184 228
197 188 216
172 205 255
172 205 255
172 206 255
173 206 255
173 206 255
174 206 255
174 207 255
175 207 255
175 207 255
175 207 255
176 208 255
176 208 255
177 208 255
177 208 255
177 209 255
178 209 255
178 209 255
178 209 255
179 209 255
179 210 255
179 210 255
180 210 255
180 210 255
180 210 255
182 211 255
182 211 255
181 211 255
181 211 255
181 211 255
181 211 255
180 210 255
180 210 255
180 210 255
179 210 255
179 210 255
179 210 255
179 209 255
178 209 255
178 209 255
177 209 255
177 208 255
177 208 255
176 208 255
176 208 255
176 208 255
175 207 255
175 207 255
46 180 211
62 175 227
74 173 234
83 172 239
92 170 243
101 170 245
109 169 247
116 169 248
124 169 249
131 169 249
139 169 248
146 169 247
154 170 245
163 170 243
172 172 239
181 173 234
193 175 227
209 180 211
175 207 255
175 207 255
176 208 255
176 208 255
176 208 255
177 208 255
177 208 255
177 209 255
178 209 255
178 209 255
179 209 255
179 210 255
179 210 255
179 210 255
180 210 255
180 210 255
180 210 255
181 211 255
181 211 255
181 211 255
181 211 255
182 211 255
182 211 255
184 212 255
183 212 255
183 212 255
183 212 255
183 212 255
183 212 255
182 212 255
182 211 255
182 211 255
182 211 255
181 211 255
181 211 255
181 211 255
181 211 255
180 210 255
180 210 255
180 210 255
179 210 255
179 210 255
179 209 255
178 209 255
178 209 255
178 209 255
51 168 222
65 165 232
75 164 239
85 163 243
93 162 246
101 161 248
109 161 250
116 161 251
124 161 251
131 161 251
139 161 251
146 161 250
154 161 248
162 162 246
170 163 243
180 164 239
190 165 232
204 168 222
178 209 255
178 209 255
178 209 255
179 209 255
179 210 255
179 210 255
180 210 255
180 210 255
180 210 255
181 211 255
181 211 255
181 211 255
181 211 255
182 211 255
182 211 255
182 211 255
182 212 255
183 212 255
183 212 255
183 212 255
183 212 255
183 212 255
184 212 255
185 213 255
185 213 255
185 213 255
185 213 255
185 213 255
185 213 255
184 213 255
184 213 255
184 213 255
184 212 255
184 212 255
183 212 255
183 212 255
183 212 255
183 212 255
182 212 255
182 212 255
182 211 255
182 211 255
181 211 255
181 211 255
181 211 255
36 161 211
54 158 228
66 156 236
76 155 241
85 154 245
94 154 248
102 153 250
109 153 252
117 153 252
124 153 253
131 153 253
138 153 252
146 153 252
153 153 250
161 154 248
170 154 245
179 155 241
189 156 236
201 158 228
219 161 211
181 211 255
181 211 255
181 211 255
182 211 255
182 211 255
182 212 255
182 212 255
183 212 255
183 212 255
183 212 255
183 212 255
184 212 255
184 212 255
184 213 255
184 213 255
184 213 255
185 213 255
185 213 255
185 213 255
185 213 255
185 213 255
185 213 255
187 214 255
187 214 255
187 214 255
187 214 255
187 214 255
187 214 255
186 214 255
186 214 255
186 214 255
186 214 255
186 214 255
186 214 255
185 213 255
185 213 255
185 213 255
185 213 255
185 213 255
185 213 255
184 213 255
184 213 255
184 213 255
184 213 255
40 150 218
56 149 231
67 148 239
77 147 243
86 146 247
94 146 250
102 146 252
109 146 253
117 146 254
124 145 254
131 145 254
138 146 254
146 146 253
153 146 252
161 146 250
169 146 247
178 147 243
188 148 239
199 149 231
215 150 218
184 213 255
184 213 255
184 213 255
184 213 255
185 213 255
185 213 255
185 213 255
185 213 255
185 213 255
185 213 255
186 214 255
186 214 255
186 214 255
186 214 255
186 214 255
186 214 255
187 214 255
187 214 255
187 214 255
187 214 255
187 214 255
187 214 255
189 216 255
189 215 255
189 215 255
189 215 255
189 215 255
189 215 255
188 215 255
188 215 255
188 215 255
188 215 255
188 215 255
188 215 255
188 215 255
188 215 255
188 215 255
188 215 255
187 215 255
187 215 255
187 215 255
187 214 255
187 214 255
187 214 255
42 141 222
57 140 233
68 139 240
77 139 245
86 139 248
94 139 251
102 138 252
109 138 254
117 138 255
124 138 255
131 138 255
138 138 255
146 138 254
153 138 252
161 139 251
169 139 248
178 139 245
187 139 240
198 140 233
213 141 222
187 214 255
187 214 255
187 214 255
187 215 255
187 215 255
187 215 255
188 215 255
188 215 255
188 215 255
188 215 255
188 215 255
188 215 255
188 215 255
188 215 255
188 215 255
188 215 255
189 215 255
189 215 255
189 215 255
189 215 255
189 215 255
189 216 255
191 217 255
191 217 255
191 217 255
191 217 255
191 217 255
191 216 255
190 216 255
190 216 255
190 216 255
190 216 255
190 216 255
190 216 255
190 216 255
190 216 255
190 216 255
190 216 255
190 216 255
190 216 255
190 216 255
190 216 255
190 216 255
190 216 255
43 132 224
57 132 234
68 131 241
78 131 245
86 131 249
94 131 251
102 131 253
110 131 254
117 131 255
124 131 255
131 131 255
138 131 255
145 131 254
153 131 253
161 131 251
169 131 249
177 131 245
187 131 241
198 132 234
212 132 224
190 216 255
190 216 255
190 216 255
190 216 255
190 216 255
190 216 255
190 216 255
190 216 255
190 216 255
190 216 255
190 216 255
190 216 255
190 216 255
190 216 255
190 216 255
190 216 255
191 216 255
191 217 255
191 217 255
191 217 255
191 217 255
191 217 255
192 218 255
192 218 255
192 218 255
192 218 255
192 218 255
192 218 255
193 218 255
193 218 255
193 218 255
193 218 255
193 218 255
193 218 255
193 218 255
193 218 255
193 218 255
193 218 255
193 218 255
193 218 255
193 218 255
193 218 255
193 218 255
193 218 255
43 123 224
57 123 234
68 124 241
78 124 245
86 124 249
94 124 251
102 124 253
110 124 254
117 124 255
124 124 255
131 124 255
138 124 255
145 124 254
153 124 253
161 124 251
169 124 249
177 124 245
187 124 241
198 123 234
212 123 224
193 218 255
193 218 255
193 218 255
193 218 255
193 218 255
193 218 255
193 218 255
193 218 255
193 218 255
193 218 255
193 218 255
193 218 255
193 218 255
193 218 255
193 218 255
193 218 255
192 218 255
192 218 255
192 218 255
192 218 255
192 218 255
192 218 255
194 219 255
194 219 255
194 219 255
194 219 255
194 219 255
194 219 255
195 219 255
195 219 255
195 219 255
195 219 255
195 219 255
195 219 255
195 219 255
195 219 255
195 219 255
195 219 255
196 220 255
196 220 255
196 220 255
196 220 255
196 220 255
196 220 255
42 114 222
57 115 233
68 116 240
77 116 245
86 116 248
94 116 251
102 117 252
109 117 254
117 117 255
124 117 255
131 117 255
138 117 255
146 117 254
153 117 252
161 116 251
169 116 248
178 116 245
187 116 240
198 115 233
213 114 222
196 220 255
196 220 255
196 220 255
196 220 255
196 220 255
196 220 255
195 219 255
195 219 255
195 219 255
195 219 255
195 219 255
195 219 255
195 219 255
195 219 255
195 219 255
195 219 255
194 219 255
194 219 255
194 219 255
194 219 255
194 219 255
194 219 255
196 220 255
196 220 255
196 220 255
196 220 255
196 220 255
196 220 255
197 220 255
197 220 255
197 220 255
197 220 255
197 221 255
197 221 255
119 255 121
120 255 122
121 255 122
122 255 123
122 255 123
123 255 123
123 255 123
124 255 123
124 255 123
124 255 123
40 105 218
56 106 231
67 107 239
77 108 243
86 109 247
94 109 250
102 109 252
109 109 253
117 109 254
124 110 254
131 110 254
138 109 254
146 109 253
153 109 252
161 109 250
169 109 247
178 108 243
188 107 239
199 106 231
215 105 218
131 255 123
131 255 123
131 255 123
132 255 123
132 255 123
133 255 123
133 255 123
134 255 122
135 255 122
136 255 121
197 221 255
197 221 255
197 220 255
197 220 255
197 220 255
197 220 255
196 220 255
196 220 255
196 220 255
196 220 255
196 220 255
196 220 255
118 255 123
119 255 124
120 255 124
120 255 124
121 255 124
121 255 125
122 255 125
122 255 125
122 255 125
123 255 125
123 255 125
123 255 125
123 255 125
124 255 125
124 255 125
124 255 125
124 255 125
125 255 125
125 255 125
125 255 125
125 255 125
125 255 125
36 94 211
54 97 228
66 99 236
76 100 241
85 101 245
94 101 248
102 102 250
109 102 252
117 102 252
124 102 253
131 102 253
138 102 252
146 102 252
153 102 250
161 101 248
170 101 245
179 100 241
189 99 236
201 97 228
219 94 211
130 255 125
130 255 125
130 255 125
130 255 125
130 255 125
131 255 125
131 255 125
131 255 125
131 255 125
132 255 125
132 255 125
132 255 125
132 255 125
133 255 125
133 255 125
133 255 125
134 255 125
134 255 124
135 255 124
135 255 124
136 255 124
137 255 123
122 255 126
122 255 126
123 255 126
123 255 126
123 255 126
123 255 126
123 255 126
124 255 126
124 255 126
124 255 126
124 255 126
124 255 126
125 255 126
125 255 126
125 255 126
125 255 126
125 255 126
125 255 126
126 255 126
126 255 126
126 255 126
126 255 126
126 255 126
51 87 222
65 90 232
75 91 239
85 92 243
93 93 246
101 94 248
109 94 250
116 94 251
124 94 251
131 94 251
139 94 251
146 94 250
154 94 248
162 93 246
170 92 243
180 91 239
190 90 232
204 87 222
129 255 126
129 255 126
129 255 126
129 255 126
129 255 126
130 255 126
130 255 126
130 255 126
130 255 126
130 255 126
130 255 126
131 255 126
131 255 126
131 255 126
131 255 126
131 255 126
132 255 126
132 255 126
132 255 126
132 255 126
132 255 126
133 255 126
133 255 126
123 255 126
124 255 126
124 255 126
124 255 127
124 255 127
124 255 127
124 255 127
124 255 127
125 255 127
125 255 127
125 255 127
125 255 127
125 255 127
125 255 127
125 255 127
126 255 127
126 255 127
126 255 127
126 255 127
126 255 127
126 255 127
126 255 127
126 255 127
46 75 211
62 80 227
74 82 234
83 83 239
92 85 243
101 85 245
109 86 247
116 86 248
124 86 249
131 86 249
139 86 248
146 86 247
154 85 245
163 85 243
172 83 239
181 82 234
193 80 227
209 75 211
129 255 127
129 255 127
129 255 127
129 255 127
129 255 127
129 255 127
129 255 127
129 255 127
130 255 127
130 255 127
130 255 127
130 255 127
130 255 127
130 255 127
130 255 127
131 255 127
131 255 127
131 255 127
131 255 127
131 255 127
131 255 126
131 255 126
132 255 126
124 255 127
124 255 127
124 255 127
125 255 127
125 255 127
125 255 127
125 255 127
125 255 127
125 255 127
125 255 127
125 255 127
125 255 127
126 255 127
126 255 127
126 255 127
126 255 127
126 255 127
126 255 127
126 255 127
126 255 127
126 255 127
126 255 127
127 255 127
127 255 127
58 67 216
71 71 228
82 74 234
91 75 239
100 76 241
108 77 243
116 77 245
124 78 245
131 78 245
139 77 245
147 77 243
155 76 241
164 75 239
173 74 234
184 71 228
197 67 216
128 255 127
128 255 127
129 255 127
129 255 127
129 255 127
129 255 127
129 255 127
129 255 127
129 255 127
129 255 127
129 255 127
129 255 127
130 255 127
130 255 127
130 255 127
130 255 127
130 255 127
130 255 127
130 255 127
130 255 127
130 255 127
131 255 127
131 255 127
131 255 127
125 255 127
125 255 127
125 255 127
125 255 127
125 255 127
125 255 127
125 255 127
125 255 127
125 255 127
126 255 127
126 255 127
126 255 127
126 255 127
126 255 127
126 255 127
126 255 127
126 255 127
126 255 127
126 255 127
126 255 127
127 255 127
127 255 127
127 255 127
127 255 127
127 255 127
67 58 216
80 62 227
90 65 232
99 66 236
107 67 239
116 68 240
124 68 241
131 68 241
139 68 240
148 67 239
156 66 236
165 65 232
175 62 227
188 58 216
128 255 127
128 255 127
128 255 127
128 255 127
128 255 127
129 255 127
129 255 127
129 255 127
129 255 127
129 255 127
129 255 127
129 255 127
129 255 127
129 255 127
129 255 127
129 255 127
130 255 127
130 255 127
130 255 127
130 255 127
130 255 127
130 255 127
130 255 127
130 255 127
130 255 127
125 255 127
125 255 127
125 255 127
125 255 127
125 255 127
125 255 127
126 255 127
126 255 127
126 255 127
126 255 127
126 255 127
126 255 127
126 255 127
126 255 127
126 255 127
126 255 127
126 255 127
126 255 127
126 255 127
127 255 127
127 255 127
127 255 127
127 255 127
127 255 127
127 255 127
127 255 127
75 46 211
87 51 222
97 54 228
106 56 231
115 57 233
123 57 234
132 57 234
140 57 233
149 56 231
158 54 228
168 51 222
180 46 211
128 255 127
128 255 127
128 255 127
128 255 127
128 255 127
128 255 127
128 255 127
129 255 127
129 255 127
129 255 127
129 255 127
129 255 127
129 255 127
129 255 127
129 255 127
129 255 127
129 255 127
129 255 127
129 255 127
129 255 127
130 255 127
130 255 127
130 255 127
130 255 127
130 255 127
130 255 127
125 255 128
125 255 128
125 255 128
126 255 128
126 255 128
126 255 128
126 255 128
126 255 128
126 255 128
126 255 128
126 255 128
126 255 128
126 255 128
126 255 128
126 255 128
126 255 128
126 255 128
127 255 128
127 255 128
127 255 128
127 255 128
127 255 128
127 255 128
127 255 128
127 255 128
127 255 128
127 255 128
127 255 128
94 36 211
105 40 218
114 42 222
123 43 224
132 43 224
141 42 222
150 40 218
161 36 211
128 255 128
128 255 128
128 255 128
128 255 128
128 255 128
128 255 128
128 255 128
128 255 128
128 255 128
128 255 128
128 255 128
129 255 128
129 255 128
129 255 128
129 255 128
129 255 128
129 255 128
129 255 128
129 255 128
129 255 128
129 255 128
129 255 128
129 255 128
129 255 128
129 255 128
130 255 128
130 255 128
130 255 128
126 255 128
126 255 128
126 255 128
126 255 128
126 255 128
126 255 128
126 255 128
126 255 128
126 255 128
126 255 128
126 255 128
126 255 128
126 255 128
126 255 128
126 255 128
126 255 128
127 255 128
127 255 128
127 255 128
127 255 128
127 255 128
127 255 128
127 255 128
127 255 128
127 255 128
127 255 128
127 255 128
127 255 128
127 255 128
127 255 128
127 255 128
127 255 128
128 255 128
128 255 128
128 255 128
128 255 128
128 255 128
128 255 128
128 255 128
128 255 128
128 255 128
128 255 128
128 255 128
128 255 128
128 255 128
128 255 128
128 255 128
128 255 128
129 255 128
129 255 128
129 255 128
129 255 128
129 255 128
129 255 128
129 255 128
129 255 128
129 255 128
129 255 128
129 255 128
129 255 128
129 255 128
129 255 128
129 255 128
129 255 128
126 255 128
126 255 128
126 255 128
126 255 128
126 255 128
126 255 128
126 255 128
126 255 128
126 255 128
126 255 128
126 255 128
126 255 128
126 255 128
126 255 128
127 255 128
127 255 128
127 255 128
127 255 128
127 255 128
127 255 128
127 255 128
127 255 128
127 255 128
127 255 128
127 255 128
127 255 128
127 255 128
127 255 128
127 255 128
127 255 128
127 255 128
127 255 128
128 255 128
128 255 128
128 255 128
128 255 128
128 255 128
128 255 128
128 255 128
128 255 128
128 255 128
128 255 128
128 255 128
128 255 128
128 255 128
128 255 128
128 255 128
128 255 128
128 255 128
128 255 128
129 255 128
129 255 128
129 255 128
129 255 128
129 255 128
129 255 128
129 255 128
129 255 128
129 255 128
129 255 128
129 255 128
129 255 128
129 255 128
129 255 128
126 255 128
126 255 128
126 255 128
126 255 128
126 255 128
126 255 128
126 255 128
126 255 128
126 255 128
126 255 128
126 255 128
126 255 128
126 255 128
127 255 128
127 255 128
127 255 128
127 255 128
127 255 128
127 255 128
127 255 128
127 255 128
127 255 128
127 255 128
127 255 128
127 255 128
127 255 128
127 255 128
127 255 128
127 255 128
127 255 128
127 255 128
127 255 128
128 255 128
128 255 128
128 255 128
128 255 128
128 255 128
128 255 128
128 255 128
128 255 128
128 255 128
128 255 128
128 255 128
128 255 128
128 255 128
128 255 128
128 255 128
128 255 128
128 255 128
128 255 128
128 255 128
129 255 128
129 255 128
129 255 128
129 255 128
129 255 128
129 255 128
129 255 128
129 255 128
129 255 128
129 255 128
129 255 128
129 255 128
129 255 128
126 255 128
126 255 128
126 255 128
126 255 128
126 255 128
126 255 128
126 255 128
126 255 128
126 255 128
126 255 128
126 255 128
127 255 128
127 255 128
127 255 128
127 255 128
127 255 128
127 255 128
127 255 128
127 255 128
127 255 128
127 255 128
127 255 128
127 255 128
127 255 128
127 255 128
127 255 128
127 255 128
127 255 128
127 255 128
127 255 128
127 255 128
127 255 128
128 255 128
128 255 128
128 255 128
128 255 128
128 255 128
128 255 128
128 255 128
128 255 128
128 255 128
128 255 128
128 255 128
128 255 128
128 255 128
128 255 128
128 255 128
128 255 128
128 255 128
128 255 128
128 255 128
128 255 128
128 255 128
129 255 128
129 255 128
129 255 128
129 255 128
129 255 128
129 255 128
129 255 128
129 255 128
129 255 128
129 255 128
129 255 128
126 255 128
126 255 128
126 255 128
126 255 128
126 255 128
126 255 128
126 255 128
126 255 128
126 255 128
126 255 128
127 255 128
127 255 128
127 255 128
127 255 128
127 255 128
127 255 128
127 255 128
127 255 128
127 255 128
127 255 128
127 255 128
127 255 128
127 255 128
127 255 128
127 255 128
127 255 128
127 255 128
127 255 128
127 255 128
127 255 128
127 255 128
127 255 128
128 255 128
128 255 128
128 255 128
128 255 128
128 255 128
128 255 128
128 255 128
128 255 128
128 255 128
128 255 128
128 255 128
128 255 128
128 255 128
128 255 128
128 255 128
128 255 128
128 255 128
128 255 128
128 255 128
128 255 128
128 255 128
128 255 128
129 255 128
129 255 128
129 255 128
129 255 128
129 255 128
129 255 128
129 255 128
129 255 128
129 255 128
129 255 128
126 255 128
126 255 128
126 255 128
126 255 128
126 255 128
126 255 128
126 255 128
126 255 128
127 255 128
127 255 128
127 255 128
127 255 128
127 255 128
127 255 128
127 255 128
127 255 128
127 255 128
127 255 128
127 255 128
127 255 128
127 255 128
127 255 128
127 255 128
127 255 128
127 255 128
127 255 128
127 255 128
127 255 128
127 255 128
127 255 128
127 255 128
127 255 128
128 255 128
128 255 128
128 255 128
128 255 128
128 255 128
128 255 128
128 255 128
128 255 128
128 255 128
128 255 128
128 255 128
128 255 128
128 255 128
128 255 128
128 255 128
128 255 128
128 255 128
128 255 128
128 255 128
128 255 128
128 255 128
128 255 128
128 255 128
128 255 128
129 255 128
129 255 128
129 255 128
129 255 128
129 255 128
129 255 128
129 255 128
129 255 128
126 255 128
126 255 128
126 255 128
126 255 128
126 255 128
126 255 128
127 255 128
127 255 128
127 255 128
127 255 128
127 255 128
127 255 128
127 255 128
127 255 128
127 255 128
127 255 128
127 255 128
127 255 128
127 255 128
127 255 128
127 255 128
127 255 128
127 255 128
127 255 128
127 255 128
127 255 128
127 255 128
127 255 128
127 255 128
127 255 128
127 255 128
127 255 128
128 255 128
128 255 128
128 255 128
128 255 128
128 255 128
128 255 128
128 255 128
128 255 128
128 255 128
128 255 128
128 255 128
128 255 128
128 255 128
128 255 128
128 255 128
128 255 128
128 255 128
128 255 128
128 255 128
128 255 128
128 255 128
128 255 128
128 255 128
128 255 128
128 255 128
128 255 128
129 255 128
129 255 128
129 255 128
129 255 128
129 255 128
129 255 128
126 255 128
126 255 128
126 255 128
126 255 128
126 255 128
127 255 128
127 255 128
127 255 128
127 255 128
127 255 128
127 255 128
127 255 128
127 255 128
127 255 128
127 255 128
127 255 128
127 255 128
127 255 128
127 255 128
127 255 128
127 255 128
127 255 128
127 255 128
127 255 128
127 255 128
127 255 128
127 255 128
127 255 128
127 255 128
127 255 128
127 255 128
127 255 128
128 255 128
128 255 128
128 255 128
128 255 128
128 255 128
128 255 128
128 255 128
128 255 128
128 255 128
128 255 128
128 255 128
128 255 128
128 255 128
128 255 128
128 255 128
128 255 128
128 255 128
128 255 128
128 255 128
128 255 128
128 255 128
128 255 128
128 255 128
128 255 128
128 255 128
128 255 128
128 255 128
129 255 128
129 255 128
129 255 128
129 255 128
129 255 128
